 <svg  version="1.0" xmlns="http://www.w3.org/2000/svg"  width="460.000000pt" height="460.000000pt" viewBox="0 0 460.000000 460.000000"  preserveAspectRatio="xMidYMid meet">  <g transform="translate(0.000000,460.000000) scale(0.100000,-0.100000)" fill="#8e1adb" stroke="none"> <path d="M2085 4540 c-209 -16 -467 -74 -610 -135 -16 -8 -43 -17 -60 -21 -36 -8 -144 -60 -202 -97 -24 -15 -45 -27 -48 -27 -9 0 -227 -146 -265 -177 -237 -195 -404 -388 -552 -638 -83 -142 -107 -194 -156 -340 -68 -203 -92 -307 -117 -500 -33 -261 -7 -597 67 -860 11 -38 24 -86 29 -105 6 -19 16 -48 24 -65 7 -16 18 -50 25 -74 10 -37 32 -82 119 -246 32 -60 135 -211 186 -275 52 -65 88 -103 161 -171 61 -56 339 -260 437 -320 170 -104 306 -165 232 -104 -202 168 -355 321 -466 470 -113 150 -244 391 -302 552 -117 324 -149 490 -150 778 0 216 13 309 70 495 40 132 103 269 167 367 79 120 69 115 123 58 80 -85 297 -386 321 -444 4 -9 51 -89 105 -178 53 -90 97 -165 97 -168 0 -3 11 -22 23 -43 13 -20 41 -71 62 -112 22 -41 52 -96 67 -121 24 -39 64 -126 125 -269 8 -19 18 -44 23 -55 91 -204 161 -432 180 -585 17 -145 -25 -251 -107 -266 -48 -9 -41 -23 10 -19 147 14 213 34 299 88 234 150 283 449 174 1057 -16 91 -30 153 -100 468 -25 112 -46 213 -46 225 0 12 -11 72 -25 132 -23 103 -76 409 -90 520 -45 376 -11 687 100 917 48 98 84 147 173 232 28 27 52 54 52 58 0 9 -18 8 -155 -2z"/> <path d="M3121 4356 c12 -11 102 -86 139 -116 23 -19 105 -102 182 -184 155 -166 289 -355 362 -510 82 -172 94 -201 130 -311 67 -201 76 -236 108 -430 20 -121 17 -437 -5 -557 -30 -164 -81 -314 -154 -457 -46 -89 -128 -211 -142 -211 -18 0 -86 74 -149 163 -20 29 -39 54 -42 57 -8 7 -170 249 -170 254 0 3 -36 64 -81 138 -45 73 -117 198 -160 278 -44 80 -86 156 -95 170 -28 46 -112 224 -164 350 -29 69 -58 139 -65 155 -68 159 -116 351 -122 480 -4 101 -2 114 19 155 18 35 35 51 78 73 l55 28 -85 -6 c-242 -16 -394 -136 -476 -375 -27 -77 -27 -436 -1 -585 36 -209 49 -275 84 -430 20 -88 42 -187 49 -220 7 -33 19 -91 28 -130 9 -38 20 -99 25 -135 5 -36 18 -105 29 -155 19 -84 42 -220 74 -425 18 -117 18 -572 0 -660 -18 -87 -67 -231 -103 -304 -40 -81 -86 -140 -165 -215 l-67 -64 141 7 c260 13 590 96 814 204 95 46 343 204 412 262 86 73 195 172 226 206 118 131 206 246 275 359 27 44 53 82 57 85 13 10 96 192 127 280 146 417 179 795 101 1195 -34 180 -101 388 -165 520 -137 280 -311 504 -572 737 -111 99 -476 328 -523 328 -8 0 -11 -2 -9 -4z"/> </g> </svg> 